<svg id="svg" width="400" height="300" >
	<path id="cinar" d="M235.484 195.699 C 235.484 195.995,235.121 196.237,234.677 196.237 C 234.234 196.237,233.871 196.692,233.871 197.249 C 233.871 199.333,221.860 198.727,221.308 196.615 C 221.006 195.461,215.360 195.449,214.601 196.602 C 214.406 196.897,213.219 197.587,211.962 198.135 C 210.706 198.683,209.677 199.333,209.677 199.579 C 209.677 199.825,209.066 200.259,208.320 200.543 C 207.573 200.827,206.799 201.486,206.599 202.008 C 205.316 205.368,202.848 206.685,198.088 206.552 C 195.591 206.482,193.552 206.613,193.557 206.842 C 193.570 207.506,194.271 208.287,195.430 208.927 C 196.323 209.420,196.532 210.174,196.663 213.363 L 196.821 217.204 193.455 217.204 C 189.458 217.204,188.140 216.103,187.051 211.851 C 186.404 209.329,186.326 209.253,184.085 209.001 C 180.955 208.648,180.108 207.658,180.108 204.356 L 180.108 201.645 182.661 200.901 C 188.220 199.280,185.628 197.491,177.554 197.375 C 174.998 197.339,173.118 197.084,173.118 196.774 C 173.118 196.478,172.392 196.237,171.505 196.237 C 170.618 196.237,169.892 196.447,169.892 196.705 C 169.892 197.268,162.965 198.132,159.946 197.946 C 158.214 197.839,157.430 198.130,155.914 199.443 C 154.879 200.339,153.888 201.073,153.711 201.074 C 153.535 201.075,152.821 201.569,152.125 202.172 C 151.011 203.139,150.421 203.226,147.171 202.906 C 143.349 202.530,140.860 203.206,140.860 204.622 C 140.860 204.994,140.316 205.739,139.651 206.278 C 138.985 206.817,138.098 207.923,137.678 208.737 C 137.258 209.550,136.593 210.215,136.199 210.215 C 135.806 210.215,135.484 210.462,135.484 210.764 C 135.484 211.066,134.882 211.587,134.147 211.922 C 131.353 213.195,131.071 214.400,132.063 220.825 C 132.554 224.008,133.123 226.734,133.327 226.882 C 133.531 227.030,134.137 229.267,134.675 231.855 C 135.212 234.442,135.817 236.559,136.020 236.559 C 136.222 236.559,136.713 237.918,137.112 239.579 C 137.510 241.239,138.154 242.916,138.542 243.304 C 138.930 243.692,139.247 244.260,139.247 244.566 C 139.247 245.490,140.957 250.249,141.392 250.538 C 141.615 250.685,142.319 251.956,142.955 253.360 C 143.592 254.765,144.330 255.914,144.595 255.914 C 144.861 255.914,145.347 256.730,145.677 257.728 C 146.262 259.501,146.360 259.551,150.019 259.911 C 152.079 260.114,153.763 260.507,153.763 260.785 C 153.763 261.063,154.610 261.290,155.645 261.290 C 156.680 261.290,157.527 261.048,157.527 260.753 C 157.527 260.457,157.871 260.215,158.291 260.215 C 160.186 260.215,164.528 257.729,165.373 256.160 C 166.917 253.292,168.692 252.688,175.581 252.688 C 179.316 252.688,181.720 252.478,181.720 252.151 C 181.720 251.855,183.051 251.613,184.677 251.613 C 186.304 251.613,187.634 251.824,187.634 252.082 C 187.634 252.340,188.619 252.708,189.822 252.901 C 191.126 253.109,192.508 253.788,193.244 254.582 C 193.923 255.315,194.692 255.924,194.954 255.936 C 195.216 255.948,196.268 256.674,197.292 257.549 C 199.607 259.528,202.021 259.627,205.060 257.867 C 206.269 257.168,208.528 256.275,210.081 255.884 C 211.633 255.493,212.903 255.016,212.903 254.824 C 212.903 254.633,214.234 254.023,215.860 253.471 C 217.487 252.918,218.817 252.294,218.817 252.084 C 218.817 251.874,219.906 251.286,221.237 250.778 C 222.567 250.270,223.656 249.698,223.656 249.508 C 223.656 249.317,224.866 248.692,226.344 248.118 C 227.823 247.545,229.032 246.933,229.032 246.759 C 229.032 246.586,230.060 245.996,231.317 245.449 C 232.574 244.902,233.792 244.136,234.023 243.748 C 234.834 242.389,238.669 241.780,241.983 242.483 C 244.906 243.103,252.822 242.001,253.763 240.843 C 253.911 240.661,255.201 240.190,256.630 239.797 C 258.058 239.405,259.514 238.818,259.864 238.493 C 260.214 238.169,261.464 237.422,262.643 236.833 C 263.821 236.245,264.978 235.459,265.215 235.086 C 265.451 234.713,265.970 234.409,266.367 234.409 C 267.623 234.409,267.796 232.798,267.416 224.629 C 267.029 216.327,266.416 214.736,264.919 218.145 C 264.562 218.958,264.098 219.750,263.889 219.903 C 263.679 220.057,263.269 220.812,262.977 221.580 C 262.155 223.742,258.065 224.129,257.232 222.124 C 257.030 221.636,256.666 219.185,256.424 216.678 C 256.181 214.171,255.726 212.034,255.411 211.929 C 255.096 211.824,254.839 211.390,254.839 210.965 C 254.839 210.540,254.234 209.916,253.495 209.580 C 252.755 209.243,252.151 208.661,252.151 208.286 C 252.151 207.911,251.593 207.164,250.912 206.625 C 250.231 206.086,249.512 205.218,249.313 204.696 C 249.115 204.174,248.341 203.515,247.594 203.231 C 246.848 202.947,246.237 202.478,246.237 202.189 C 246.237 201.900,245.408 201.270,244.396 200.790 C 243.384 200.310,242.424 199.573,242.263 199.152 C 242.101 198.731,241.612 198.387,241.176 198.387 C 240.740 198.387,240.064 197.964,239.674 197.446 C 238.377 195.725,235.484 194.518,235.484 195.699 " stroke="none" fill="#000000" fill-rule="evenodd"></path>
	<path id="kocakoy" d="M242.742 84.584 C 239.884 85.702,237.708 88.315,237.040 91.429 C 236.705 92.991,236.004 94.726,235.483 95.286 C 233.224 97.711,233.757 102.018,236.686 105.014 C 238.807 107.184,238.890 112.827,236.828 114.738 C 234.359 117.026,234.890 120.136,237.903 121.026 C 239.234 121.419,240.323 121.962,240.323 122.233 C 240.323 124.534,245.361 126.153,245.895 124.024 C 246.402 122.004,248.153 120.400,250.220 120.065 C 251.282 119.893,252.151 119.580,252.151 119.371 C 252.151 118.761,254.501 117.859,257.109 117.467 L 259.520 117.106 259.607 112.131 C 259.685 107.701,259.561 106.986,258.476 105.607 C 257.181 103.960,256.897 98.571,258.067 97.848 C 258.366 97.663,258.670 96.562,258.741 95.402 L 258.871 93.292 255.408 92.601 C 251.248 91.770,251.730 92.227,251.031 88.448 C 250.184 83.864,247.627 82.672,242.742 84.584 " stroke="none" fill="#787878" fill-rule="evenodd"></path>
	<path id="kulp" d="M346.237 8.003 C 346.237 8.266,345.571 8.597,344.758 8.739 C 342.621 9.113,337.994 10.919,337.366 11.624 C 337.070 11.956,335.679 12.553,334.274 12.951 C 332.870 13.350,331.720 13.865,331.720 14.096 C 331.720 14.327,331.264 14.516,330.707 14.516 C 328.382 14.516,325.212 17.177,323.387 20.660 C 321.842 23.610,319.969 25.412,317.204 26.610 C 315.874 27.187,314.634 27.872,314.449 28.133 C 314.265 28.395,312.120 28.595,309.684 28.579 C 304.566 28.546,303.737 28.928,298.450 33.771 C 295.438 36.530,294.964 36.896,293.912 37.277 C 292.542 37.772,293.005 39.401,294.626 39.795 C 295.651 40.044,295.939 40.431,295.846 41.431 C 294.908 51.547,295.458 57.527,297.326 57.527 C 297.550 57.527,298.120 58.495,298.593 59.677 C 299.066 60.860,299.645 61.828,299.880 61.828 C 300.114 61.828,300.762 62.614,301.321 63.575 C 301.879 64.536,302.657 65.516,303.049 65.753 C 303.442 65.989,303.763 66.520,303.763 66.932 C 303.763 67.344,304.206 67.997,304.747 68.383 C 305.288 68.770,306.190 69.812,306.750 70.699 C 307.311 71.586,308.079 72.506,308.456 72.742 C 308.963 73.060,309.051 74.152,308.794 76.915 C 308.434 80.795,309.220 82.796,311.105 82.796 C 311.503 82.796,311.828 83.010,311.828 83.271 C 311.828 83.533,313.071 84.154,314.589 84.650 C 316.108 85.147,317.649 85.852,318.013 86.216 C 318.377 86.580,319.735 87.219,321.031 87.637 C 322.327 88.054,323.508 88.527,323.656 88.687 C 323.804 88.847,325.618 89.410,327.688 89.938 C 329.758 90.465,331.537 91.146,331.642 91.451 C 331.747 91.756,332.417 92.227,333.131 92.498 C 333.844 92.770,334.681 93.656,334.990 94.469 C 335.298 95.281,335.717 96.072,335.921 96.226 C 336.124 96.379,336.747 97.325,337.305 98.327 C 338.387 100.269,338.743 100.726,341.668 103.940 C 343.331 105.768,343.631 105.908,344.346 105.193 C 344.789 104.750,346.000 104.108,347.038 103.765 C 348.076 103.423,348.928 102.980,348.931 102.781 C 348.934 102.582,349.963 101.937,351.216 101.348 C 353.886 100.093,354.839 99.281,354.839 98.264 C 354.839 97.859,355.061 97.297,355.333 97.016 C 355.605 96.735,356.202 95.056,356.660 93.285 C 357.117 91.514,357.744 89.981,358.052 89.879 C 358.360 89.776,359.116 88.521,359.732 87.089 C 360.348 85.657,361.160 84.367,361.536 84.223 C 361.913 84.079,362.548 82.852,362.948 81.496 C 363.348 80.141,363.831 79.032,364.021 79.032 C 364.211 79.032,364.508 77.883,364.682 76.478 C 365.050 73.493,366.127 70.978,367.039 70.972 C 367.392 70.970,367.997 70.528,368.383 69.991 C 368.770 69.453,369.926 68.546,370.952 67.975 C 374.035 66.257,376.162 64.442,377.167 62.670 C 377.559 61.978,378.581 61.612,380.662 61.417 C 382.279 61.265,383.723 60.988,383.871 60.801 C 384.019 60.615,384.810 60.167,385.629 59.807 C 388.172 58.690,388.565 50.538,386.077 50.538 C 385.543 50.538,383.871 43.061,383.871 40.672 C 383.871 38.551,385.385 33.871,386.072 33.871 C 386.340 33.871,386.559 33.508,386.559 33.065 C 386.559 32.621,386.317 32.258,386.022 32.258 C 385.726 32.258,385.484 31.915,385.484 31.495 C 385.484 30.524,383.882 27.546,382.675 26.274 C 382.165 25.736,381.594 24.685,381.407 23.938 C 381.220 23.192,380.877 22.581,380.647 22.581 C 380.416 22.581,380.069 21.738,379.876 20.707 C 379.682 19.677,378.807 18.049,377.931 17.090 C 377.055 16.130,376.203 14.917,376.036 14.393 C 375.870 13.869,375.406 13.441,375.005 13.441 C 374.605 13.441,373.997 12.592,373.655 11.555 C 372.802 8.971,371.832 8.602,365.896 8.602 C 362.825 8.602,360.753 8.385,360.753 8.065 C 360.753 7.733,357.975 7.527,353.495 7.527 C 349.503 7.527,346.237 7.741,346.237 8.003 " stroke="none" fill="#f00000" fill-rule="evenodd"></path>
	<path id="bismil" d="M256.855 146.104 C 256.337 146.220,255.914 146.520,255.914 146.769 C 255.914 147.019,254.825 147.639,253.495 148.147 C 252.164 148.655,251.075 149.226,251.075 149.415 C 251.075 149.604,249.989 150.237,248.661 150.820 C 247.333 151.404,246.244 152.040,246.242 152.232 C 246.235 152.680,243.227 153.878,241.129 154.269 C 238.759 154.711,238.960 165.834,241.372 167.742 C 241.559 167.890,242.041 169.033,242.443 170.282 C 242.845 171.531,243.568 172.982,244.051 173.508 C 247.802 177.591,247.642 185.049,243.765 186.889 C 242.759 187.366,241.935 187.971,241.935 188.233 C 241.935 188.495,241.684 188.710,241.376 188.710 C 238.353 188.710,236.970 192.256,239.269 194.111 C 240.169 194.837,241.674 196.095,242.615 196.909 C 243.556 197.722,244.642 198.387,245.029 198.387 C 245.416 198.387,245.872 198.750,246.042 199.194 C 246.212 199.637,246.659 200.000,247.035 200.000 C 247.777 200.000,254.839 207.250,254.839 208.012 C 254.839 208.268,255.290 208.595,255.841 208.739 C 256.486 208.907,256.974 209.697,257.210 210.952 C 257.411 212.025,257.779 212.903,258.028 212.903 C 258.277 212.903,258.576 214.584,258.692 216.638 C 258.808 218.692,259.059 220.528,259.250 220.719 C 259.902 221.372,261.773 220.376,262.117 219.193 C 263.038 216.032,263.721 215.133,265.700 214.480 C 266.823 214.110,267.742 213.650,267.742 213.458 C 267.742 211.008,274.944 211.433,276.735 213.989 C 277.145 214.575,277.817 215.054,278.230 215.054 C 278.642 215.054,279.172 215.379,279.409 215.777 C 279.645 216.174,280.988 216.933,282.392 217.463 C 283.797 217.992,284.949 218.574,284.951 218.756 C 284.954 218.937,286.043 219.564,287.371 220.147 C 288.699 220.731,289.785 221.351,289.785 221.524 C 289.785 221.936,294.133 222.969,297.729 223.412 C 299.289 223.604,300.905 224.100,301.320 224.515 C 302.176 225.371,306.452 225.552,306.452 224.731 C 306.452 224.435,306.935 224.194,307.527 224.194 C 308.118 224.194,308.602 224.435,308.602 224.731 C 308.602 225.027,309.328 225.269,310.215 225.269 C 311.102 225.269,311.828 225.084,311.828 224.858 C 311.828 224.633,313.084 224.150,314.619 223.785 C 316.154 223.420,318.284 222.516,319.352 221.776 C 320.420 221.036,321.584 220.430,321.938 220.430 C 322.291 220.430,323.010 220.007,323.535 219.489 C 324.059 218.972,325.427 218.065,326.574 217.473 C 327.722 216.882,329.205 215.914,329.870 215.323 C 331.970 213.457,332.736 212.903,333.220 212.903 C 334.036 212.903,335.083 210.373,335.150 208.239 L 335.215 206.183 331.989 206.149 C 330.215 206.131,328.461 206.070,328.091 206.015 C 327.110 205.867,327.237 203.226,328.226 203.226 C 328.669 203.226,329.032 202.863,329.032 202.419 C 329.032 201.824,328.409 201.613,326.649 201.613 C 324.727 201.613,324.199 201.402,323.920 200.522 C 323.523 199.270,324.146 192.476,324.659 192.468 C 324.847 192.465,325.591 191.134,326.312 189.511 C 327.034 187.887,327.821 186.559,328.060 186.559 C 328.299 186.559,328.495 186.090,328.495 185.516 C 328.495 184.942,328.737 184.323,329.032 184.140 C 329.328 183.957,329.570 183.333,329.570 182.752 C 329.570 182.149,330.145 181.435,330.914 181.085 C 331.653 180.748,332.258 180.318,332.258 180.129 C 332.258 179.940,333.165 179.464,334.274 179.071 C 335.383 178.678,336.723 177.903,337.252 177.350 C 337.781 176.797,338.562 176.344,338.987 176.344 C 339.412 176.344,340.183 175.679,340.701 174.866 C 341.218 174.052,341.949 173.194,342.326 172.957 C 342.703 172.721,343.011 172.193,343.011 171.784 C 343.011 171.375,343.483 170.890,344.061 170.707 C 345.194 170.347,346.774 167.645,346.774 166.067 C 346.774 165.391,346.132 164.922,344.665 164.527 C 343.505 164.215,342.457 163.661,342.336 163.297 C 342.174 162.809,338.727 162.549,329.257 162.309 C 322.184 162.130,316.355 161.949,316.302 161.906 C 316.249 161.863,315.886 161.517,315.495 161.136 C 314.759 160.419,309.579 158.602,308.272 158.602 C 307.862 158.602,307.527 158.384,307.527 158.118 C 307.527 157.852,306.257 157.332,304.704 156.964 C 303.152 156.595,301.039 155.845,300.008 155.297 C 297.837 154.143,295.937 154.012,295.322 154.973 C 295.086 155.343,294.073 156.102,293.072 156.660 C 291.098 157.760,288.675 160.178,287.268 162.454 C 284.931 166.232,278.780 165.840,276.261 161.753 C 275.568 160.627,274.836 159.700,274.635 159.692 C 274.434 159.684,273.883 158.347,273.410 156.720 C 272.937 155.094,272.327 153.763,272.053 153.763 C 271.249 153.763,266.089 148.794,265.291 147.250 C 264.567 145.851,260.461 145.293,256.855 146.104 " stroke="none" fill="#f05b00" fill-rule="evenodd"></path>
	<path id="sur" d="M223.360 101.757 C 222.247 102.969,220.834 104.000,219.355 104.678 C 218.911 104.881,218.252 105.340,217.889 105.698 C 217.526 106.056,215.530 106.653,213.454 107.024 L 209.677 107.699 209.677 110.373 C 209.677 113.282,208.731 117.103,207.764 118.101 C 207.429 118.446,206.835 120.260,206.444 122.133 C 206.053 124.006,205.572 125.659,205.376 125.806 C 204.560 126.421,203.333 137.632,203.523 142.742 C 203.633 145.699,203.754 148.965,203.791 150.000 C 203.881 152.469,203.182 157.527,202.751 157.527 C 201.667 157.527,200.939 161.016,201.528 163.387 C 201.957 165.112,201.988 166.918,201.629 169.355 C 201.300 171.592,201.301 172.914,201.633 173.029 C 202.461 173.315,202.230 175.810,201.344 176.150 C 200.901 176.320,200.538 176.897,200.538 177.432 C 200.538 177.967,200.295 178.486,199.999 178.585 C 199.702 178.683,199.279 180.579,199.058 182.796 C 198.713 186.259,198.485 186.903,197.446 187.359 C 195.960 188.011,195.870 189.252,197.281 189.621 C 197.909 189.785,198.392 190.448,198.491 191.283 C 198.606 192.252,199.075 192.782,200.047 193.040 C 201.890 193.529,203.763 195.178,203.763 196.312 C 203.763 197.901,204.385 198.925,205.351 198.925 C 206.489 198.925,209.677 197.387,209.677 196.838 C 209.677 196.392,213.470 194.624,214.428 194.624 C 214.772 194.624,215.054 194.415,215.054 194.161 C 215.054 193.563,219.719 193.015,221.640 193.387 C 222.453 193.545,223.118 193.988,223.118 194.372 C 223.118 195.321,231.004 196.093,231.869 195.228 C 232.201 194.896,232.909 194.624,233.441 194.624 C 234.166 194.624,234.409 194.203,234.409 192.948 C 234.409 191.408,237.757 187.097,238.953 187.097 C 239.845 187.097,244.086 183.744,244.086 183.039 C 244.086 182.609,244.328 182.258,244.624 182.258 C 244.919 182.258,245.161 181.411,245.161 180.376 C 245.161 179.341,244.926 178.495,244.639 178.495 C 244.351 178.495,243.596 177.285,242.959 175.806 C 242.323 174.328,241.624 173.118,241.405 173.118 C 241.186 173.118,240.589 171.788,240.077 170.161 C 239.566 168.535,238.961 167.204,238.734 167.204 C 238.108 167.204,237.097 161.517,237.097 158.000 C 237.097 153.899,237.905 152.151,239.803 152.151 C 241.404 152.151,246.237 150.192,246.237 149.543 C 246.237 149.320,247.427 148.709,248.882 148.186 C 250.337 147.663,251.642 146.936,251.782 146.572 C 251.922 146.207,253.030 145.581,254.244 145.180 C 255.458 144.779,256.452 144.248,256.452 144.000 C 256.452 143.752,257.746 143.548,259.328 143.548 C 264.073 143.548,265.689 142.736,265.281 140.557 C 264.951 138.797,265.941 135.484,266.798 135.484 C 267.659 135.484,267.151 134.464,266.129 134.140 C 265.191 133.842,265.054 133.326,265.054 130.098 C 265.054 127.725,264.813 126.243,264.382 125.968 C 264.012 125.731,263.226 124.570,262.636 123.387 C 262.045 122.204,261.259 120.917,260.888 120.526 C 260.518 120.135,260.215 119.591,260.215 119.316 C 260.215 119.042,259.610 118.817,258.871 118.817 C 258.132 118.817,257.527 119.002,257.527 119.229 C 257.527 119.706,252.690 121.505,251.406 121.505 C 250.929 121.505,250.538 121.747,250.538 122.043 C 250.538 122.339,250.216 122.581,249.822 122.581 C 249.428 122.581,248.763 123.246,248.344 124.059 C 247.924 124.872,247.278 125.857,246.909 126.248 C 246.539 126.639,246.237 127.304,246.237 127.727 C 246.237 128.748,244.137 128.716,243.743 127.688 C 243.573 127.245,242.894 126.882,242.236 126.882 C 241.577 126.882,240.402 126.168,239.626 125.297 C 238.849 124.425,237.236 123.419,236.042 123.061 L 233.871 122.410 233.871 118.839 C 233.871 115.129,234.728 112.377,235.887 112.370 C 236.910 112.363,236.779 107.726,235.745 107.329 C 235.297 107.157,234.700 106.413,234.420 105.674 C 234.132 104.918,233.313 104.182,232.546 103.989 C 231.584 103.748,231.183 103.285,231.183 102.419 C 231.183 100.137,225.304 99.640,223.360 101.757 " stroke="none" fill="#d7f000" fill-rule="evenodd"></path>
	<path id="dicle" d="M167.100 62.040 C 160.581 62.566,159.609 62.773,158.611 63.844 C 157.278 65.277,153.759 65.510,152.498 64.249 C 148.067 59.818,143.439 64.073,142.464 73.473 C 141.868 79.223,142.310 80.645,144.692 80.645 C 147.466 80.645,151.510 85.228,151.936 88.853 C 152.136 90.548,152.507 91.935,152.762 91.935 C 153.017 91.935,153.226 92.903,153.226 94.086 C 153.226 96.542,154.325 96.853,158.165 95.481 C 159.564 94.982,160.984 94.906,162.991 95.223 C 166.113 95.717,169.596 95.347,170.621 94.415 C 173.129 92.133,176.491 91.611,181.621 92.708 C 183.784 93.170,186.748 93.548,188.207 93.548 C 189.666 93.548,190.860 93.790,190.860 94.086 C 190.860 94.382,191.307 94.624,191.853 94.624 C 193.854 94.624,196.248 97.908,194.661 98.477 C 194.151 98.659,193.852 100.463,194.002 102.446 C 194.115 103.925,196.779 104.839,200.979 104.839 C 202.835 104.839,204.301 105.076,204.301 105.376 C 204.301 105.684,205.914 105.914,208.065 105.914 C 210.134 105.914,211.828 105.729,211.828 105.504 C 211.828 105.278,213.098 104.793,214.651 104.427 C 216.203 104.060,217.766 103.365,218.125 102.881 C 218.483 102.397,219.327 101.726,220.001 101.390 C 221.980 100.404,221.830 99.115,219.653 98.397 C 218.602 98.050,217.742 97.439,217.742 97.040 C 217.742 96.640,217.438 95.994,217.066 95.603 C 216.694 95.212,215.908 93.877,215.319 92.635 C 214.362 90.620,212.720 89.247,211.265 89.247 C 210.352 89.247,208.602 87.127,208.602 86.022 C 208.602 85.430,208.360 84.946,208.065 84.946 C 207.769 84.946,207.527 84.509,207.527 83.974 C 207.527 83.439,207.172 82.532,206.738 81.958 C 206.303 81.384,205.940 79.886,205.931 78.629 C 205.922 77.372,205.672 76.344,205.376 76.344 C 205.081 76.344,204.839 75.654,204.839 74.810 C 204.839 73.893,204.262 72.653,203.405 71.728 C 201.838 70.037,201.243 64.012,202.599 63.560 C 202.944 63.445,203.226 63.009,203.226 62.590 C 203.226 61.709,201.221 61.656,192.506 62.308 C 188.500 62.607,185.961 62.527,183.635 62.028 C 179.868 61.219,177.243 61.221,167.100 62.040 " stroke="none" fill="#00f06b" fill-rule="evenodd"></path>
	<path id="hani" d="M232.164 59.160 C 231.386 59.614,228.579 59.725,221.774 59.571 C 218.737 59.502,211.254 60.377,210.971 60.834 C 210.816 61.085,209.917 61.298,208.974 61.308 C 204.943 61.350,202.289 68.450,205.514 70.563 C 206.678 71.326,206.908 71.985,207.238 75.507 C 207.447 77.741,207.781 79.570,207.979 79.570 C 208.495 79.570,209.551 82.191,209.965 84.499 C 210.284 86.278,210.557 86.541,212.757 87.187 C 214.327 87.648,215.394 88.334,215.749 89.113 C 216.053 89.778,216.457 90.323,216.647 90.323 C 216.837 90.323,217.427 91.532,217.959 93.011 C 218.490 94.489,219.126 95.699,219.370 95.699 C 219.615 95.699,220.203 96.086,220.676 96.559 C 221.495 97.379,226.669 98.331,230.511 98.370 C 231.995 98.384,232.258 98.195,232.258 97.116 C 232.258 96.416,232.766 95.198,233.387 94.409 C 234.008 93.619,234.647 91.954,234.806 90.707 C 235.104 88.389,235.366 87.947,238.000 85.312 C 240.896 82.416,241.263 82.230,244.712 81.908 L 248.180 81.584 248.217 77.217 C 248.237 74.815,248.332 71.914,248.428 70.770 C 248.561 69.187,248.352 68.518,247.554 67.966 C 246.977 67.567,246.213 66.991,245.856 66.685 C 245.499 66.379,245.038 66.129,244.832 66.129 C 243.791 66.129,240.648 63.062,239.936 61.354 C 238.793 58.608,234.963 57.527,232.164 59.160 " stroke="none" fill="#0093f0" fill-rule="evenodd"></path>
	<path id="hazro" d="M294.355 89.856 C 292.876 90.061,288.983 90.250,285.702 90.275 C 280.149 90.319,279.629 90.415,278.175 91.667 C 275.800 93.710,266.647 94.281,264.863 92.497 C 263.167 90.801,260.900 91.854,260.573 94.489 C 260.399 95.894,260.096 98.178,259.901 99.565 C 259.485 102.508,259.862 104.409,261.108 105.655 C 261.823 106.370,261.990 107.568,261.948 111.681 C 261.900 116.452,262.847 120.957,263.902 120.973 C 264.092 120.976,264.725 122.064,265.309 123.392 C 265.892 124.720,266.558 125.806,266.787 125.806 C 267.017 125.806,267.204 126.532,267.204 127.419 C 267.204 129.405,269.240 129.685,270.985 127.940 C 272.252 126.673,276.211 125.806,280.735 125.806 C 283.010 125.806,283.989 125.586,284.204 125.026 C 284.668 123.818,288.033 122.952,290.929 123.295 C 293.510 123.601,296.774 122.893,296.774 122.028 C 296.774 121.782,297.319 121.503,297.984 121.408 C 298.761 121.298,299.255 120.804,299.365 120.027 C 299.460 119.362,299.762 118.817,300.037 118.817 C 300.313 118.817,300.538 118.189,300.538 117.422 C 300.538 115.485,301.983 113.232,303.971 112.071 C 304.892 111.534,305.961 110.654,306.348 110.117 C 306.734 109.579,307.339 109.137,307.692 109.134 C 308.856 109.122,310.478 104.997,309.690 104.048 C 309.315 103.596,308.814 103.226,308.578 103.226 C 306.124 103.226,302.938 96.495,303.377 92.241 L 303.677 89.329 300.360 89.406 C 298.536 89.448,295.833 89.650,294.355 89.856 " stroke="none" fill="#1700f0" fill-rule="evenodd"></path>
	<path id="silvan" d="M307.389 84.765 C 307.247 85.013,306.812 86.848,306.424 88.844 C 306.035 90.840,305.519 92.473,305.278 92.473 C 305.036 92.473,304.839 93.078,304.839 93.817 C 304.839 94.556,305.062 95.161,305.335 95.161 C 305.607 95.161,306.098 95.972,306.425 96.962 C 306.752 97.952,307.884 99.465,308.940 100.322 C 312.109 102.895,312.366 103.237,312.366 104.891 C 312.366 106.376,308.929 111.828,307.994 111.828 C 307.265 111.828,303.226 115.774,303.226 116.486 C 303.226 116.881,303.007 117.204,302.739 117.204 C 302.471 117.204,302.087 118.399,301.886 119.858 C 301.523 122.497,301.501 122.522,298.018 124.202 C 294.061 126.111,291.180 126.759,290.628 125.866 C 289.944 124.759,285.500 125.865,284.409 127.413 C 284.261 127.623,282.067 127.937,279.533 128.112 C 275.032 128.421,272.495 129.138,271.064 130.504 C 270.673 130.878,270.008 131.183,269.585 131.183 C 268.566 131.183,268.597 132.745,269.624 133.139 C 270.748 133.570,270.637 134.209,269.086 136.243 C 268.054 137.596,267.742 138.648,267.742 140.777 C 267.742 142.882,267.548 143.548,266.935 143.548 C 266.492 143.548,266.129 143.911,266.129 144.355 C 266.129 144.798,266.379 145.161,266.684 145.161 C 266.989 145.161,267.394 145.585,267.585 146.102 C 268.030 147.307,271.409 150.716,272.984 151.549 C 273.649 151.901,274.194 152.543,274.194 152.976 C 274.194 153.409,274.383 153.763,274.614 153.763 C 274.845 153.763,275.362 154.875,275.764 156.234 C 277.549 162.280,282.459 164.531,285.532 160.712 C 288.583 156.920,291.027 154.794,293.683 153.618 C 294.496 153.258,295.161 152.780,295.161 152.557 C 295.161 152.333,296.129 152.151,297.312 152.151 C 298.495 152.151,299.462 152.356,299.462 152.607 C 299.462 153.078,304.389 154.839,305.707 154.839 C 306.116 154.839,306.452 155.042,306.452 155.290 C 306.452 155.539,307.810 156.068,309.471 156.467 C 311.132 156.865,312.765 157.452,313.100 157.772 C 314.957 159.541,319.699 160.215,330.289 160.215 C 336.103 160.215,340.860 160.403,340.860 160.634 C 340.860 160.864,342.583 161.496,344.689 162.038 C 348.747 163.084,349.434 162.879,349.454 160.618 C 349.459 160.101,349.704 159.677,350.000 159.677 C 350.296 159.677,350.538 159.202,350.538 158.621 C 350.538 156.745,352.252 152.450,353.291 151.722 C 354.013 151.216,354.301 150.355,354.301 148.704 C 354.301 146.326,355.562 144.350,357.868 143.116 C 358.469 142.794,359.322 141.273,359.863 139.557 C 360.382 137.908,361.007 136.559,361.251 136.559 C 361.494 136.559,361.840 135.826,362.019 134.930 C 362.199 134.034,362.955 132.736,363.699 132.046 C 365.301 130.561,365.375 129.968,364.113 128.706 C 363.431 128.024,363.164 126.865,363.144 124.501 C 363.118 121.341,362.121 117.211,361.383 117.198 C 361.184 117.195,360.546 116.199,359.964 114.986 C 359.383 113.773,358.623 112.671,358.277 112.538 C 357.930 112.405,357.214 111.163,356.685 109.778 C 356.156 108.392,355.383 106.919,354.968 106.504 C 354.459 105.995,354.323 105.160,354.550 103.950 C 354.758 102.841,354.672 102.151,354.325 102.151 C 354.016 102.151,353.763 102.345,353.763 102.582 C 353.763 102.819,352.554 103.448,351.075 103.980 C 349.597 104.512,348.387 105.161,348.387 105.423 C 348.387 106.101,344.765 107.527,343.044 107.527 C 341.581 107.527,339.548 105.675,337.381 102.368 C 336.829 101.524,335.936 100.362,335.399 99.785 C 334.861 99.207,334.263 98.233,334.071 97.620 C 333.521 95.867,330.269 93.102,327.934 92.403 C 326.764 92.052,325.806 91.562,325.806 91.313 C 325.806 91.064,325.350 90.860,324.793 90.860 C 323.670 90.860,318.166 89.202,317.742 88.736 C 317.123 88.056,314.016 86.559,313.223 86.559 C 312.752 86.559,312.366 86.345,312.366 86.084 C 312.366 85.823,311.821 85.480,311.156 85.321 C 310.491 85.163,309.429 84.871,308.797 84.674 C 308.165 84.477,307.532 84.517,307.389 84.765 " stroke="none" fill="#8d00f0" fill-rule="evenodd"></path>
	<path id="lice" d="M233.413 28.282 C 232.801 28.975,232.815 29.203,233.505 29.740 C 237.895 33.156,235.360 43.176,229.513 45.516 C 228.361 45.976,227.419 46.681,227.419 47.082 C 227.419 47.935,225.769 48.925,224.348 48.925 C 221.045 48.925,220.106 56.678,223.336 57.284 C 225.704 57.728,230.819 57.319,233.772 56.449 C 236.489 55.648,240.323 56.459,240.323 57.834 C 240.323 58.275,240.685 58.775,241.129 58.945 C 241.573 59.116,241.935 59.671,241.935 60.179 C 241.935 61.180,244.062 63.441,245.004 63.441 C 245.323 63.441,245.723 63.804,245.893 64.247 C 246.064 64.691,246.581 65.054,247.044 65.054 C 249.919 65.054,252.336 71.243,250.269 73.310 C 249.371 74.208,249.148 78.495,250.000 78.495 C 250.296 78.495,250.538 78.886,250.538 79.363 C 250.538 80.647,252.337 85.484,252.814 85.484 C 253.041 85.484,253.230 86.270,253.234 87.231 C 253.249 90.430,254.454 90.811,262.017 90.012 C 264.019 89.800,265.378 89.894,265.754 90.270 C 266.078 90.594,266.780 90.860,267.312 90.860 C 267.844 90.860,268.280 91.102,268.280 91.398 C 268.280 91.694,269.610 91.935,271.237 91.935 C 272.863 91.935,274.196 91.754,274.200 91.532 C 274.203 91.310,275.171 90.667,276.350 90.102 C 277.530 89.537,278.495 88.871,278.495 88.623 C 278.495 88.375,281.170 88.172,284.440 88.172 C 287.710 88.172,292.004 87.943,293.983 87.663 C 295.962 87.383,299.214 87.001,301.210 86.814 C 304.250 86.529,304.839 86.313,304.839 85.486 C 304.839 84.943,305.107 84.409,305.436 84.299 C 305.770 84.188,306.119 82.455,306.229 80.358 C 306.336 78.300,306.558 76.010,306.720 75.270 C 306.958 74.185,306.564 73.497,304.690 71.734 C 303.410 70.530,301.954 68.682,301.453 67.627 C 300.952 66.572,300.179 65.569,299.734 65.398 C 299.289 65.227,298.925 64.763,298.925 64.366 C 298.925 63.968,298.501 63.175,297.984 62.601 C 297.466 62.028,296.565 60.652,295.980 59.543 C 295.395 58.434,294.746 57.527,294.538 57.527 C 293.378 57.527,292.448 49.584,293.136 45.559 C 293.974 40.657,291.683 38.206,288.785 40.905 C 286.035 43.467,279.869 43.868,278.985 41.543 C 278.678 40.736,278.225 39.950,277.978 39.796 C 277.731 39.642,277.176 38.306,276.745 36.828 C 275.889 33.888,274.118 33.109,272.908 35.142 C 272.084 36.525,269.464 39.151,268.267 39.792 C 266.007 41.001,254.301 40.008,254.301 38.607 C 254.301 38.398,252.849 37.820,251.075 37.323 C 249.301 36.825,247.849 36.229,247.849 35.998 C 247.849 35.767,246.910 35.420,245.762 35.226 C 244.245 34.969,243.253 34.344,242.133 32.939 C 237.952 27.694,235.223 26.236,233.413 28.282 " stroke="none" fill="#f000b5" fill-rule="evenodd"></path>
	<path id="cermik" d="M78.201 101.978 C 77.596 102.098,76.651 103.033,76.100 104.055 C 75.550 105.078,74.915 105.914,74.689 105.914 C 74.464 105.914,74.120 106.639,73.925 107.526 C 73.730 108.413,73.162 109.441,72.663 109.811 C 71.456 110.706,69.892 113.199,69.892 114.228 C 69.892 114.682,69.651 115.054,69.355 115.054 C 69.059 115.054,68.817 115.372,68.817 115.761 C 68.817 117.966,65.005 119.927,59.251 120.683 C 56.148 121.091,53.462 121.629,53.283 121.879 C 53.104 122.129,52.231 122.653,51.344 123.044 C 50.457 123.434,49.368 124.079,48.925 124.477 C 45.323 127.708,43.898 128.959,42.362 130.240 C 41.388 131.053,40.016 132.197,39.313 132.783 C 37.797 134.046,34.995 134.660,32.777 134.217 C 31.353 133.932,31.183 134.040,31.183 135.228 C 31.183 135.960,30.941 136.559,30.645 136.559 C 30.349 136.559,30.108 136.910,30.108 137.339 C 30.108 139.569,28.873 143.548,28.181 143.548 C 27.762 143.548,27.419 143.769,27.419 144.039 C 27.419 144.308,26.452 144.693,25.269 144.892 C 24.086 145.092,23.118 145.439,23.118 145.664 C 23.118 145.888,22.634 146.630,22.043 147.312 C 21.452 147.994,20.968 148.844,20.968 149.201 C 20.968 149.558,20.108 150.761,19.057 151.876 C 16.920 154.142,16.723 156.199,18.548 157.204 C 19.140 157.529,19.745 157.950,19.892 158.138 C 20.040 158.327,21.069 158.859,22.177 159.321 C 23.286 159.782,24.194 160.414,24.194 160.725 C 24.194 162.162,26.173 161.165,26.809 159.409 C 27.459 157.610,30.108 156.531,30.108 158.065 C 30.108 158.360,30.451 158.602,30.871 158.602 C 31.291 158.602,31.795 159.330,31.990 160.220 C 32.494 162.512,33.625 162.903,39.750 162.903 C 42.726 162.903,45.161 163.114,45.161 163.372 C 45.161 163.629,47.541 164.009,50.450 164.215 C 56.542 164.647,59.846 165.291,60.116 166.101 C 60.220 166.412,60.620 166.667,61.005 166.667 C 61.999 166.667,65.573 170.464,65.939 171.909 C 66.108 172.574,66.452 173.118,66.703 173.118 C 66.955 173.118,67.457 174.147,67.819 175.403 C 68.592 178.087,68.529 178.006,74.292 183.784 C 79.762 189.268,79.951 189.426,82.124 190.293 C 83.085 190.677,83.871 191.184,83.871 191.420 C 83.871 191.656,85.141 192.267,86.694 192.778 C 88.246 193.289,89.637 193.864,89.785 194.057 C 89.933 194.250,91.142 194.713,92.473 195.087 C 93.804 195.461,95.255 195.870,95.699 195.995 C 96.389 196.189,96.504 195.117,96.498 188.568 C 96.490 181.375,95.753 176.882,94.581 176.882 C 94.381 176.882,93.674 175.430,93.011 173.656 C 92.347 171.882,91.616 170.430,91.385 170.430 C 90.664 170.430,89.785 167.158,89.785 164.471 C 89.785 161.121,90.556 159.140,91.861 159.140 C 92.666 159.140,92.967 158.618,93.251 156.727 C 93.450 155.400,93.961 153.965,94.387 153.539 C 94.813 153.113,95.161 152.523,95.161 152.228 C 95.161 151.933,95.718 151.250,96.399 150.711 C 97.080 150.172,98.109 148.884,98.684 147.849 C 99.260 146.815,99.950 145.810,100.216 145.617 C 100.880 145.136,100.691 137.417,100.009 137.189 C 99.708 137.089,99.462 136.684,99.462 136.289 C 99.462 135.495,97.810 132.161,97.184 131.693 C 96.966 131.530,96.451 130.280,96.041 128.916 C 95.590 127.418,94.444 125.577,93.145 124.265 C 91.962 123.071,90.842 121.696,90.656 121.211 C 90.470 120.725,89.835 120.202,89.245 120.048 C 88.655 119.893,88.172 119.611,88.172 119.421 C 88.172 119.231,87.507 118.358,86.694 117.482 C 85.270 115.948,85.208 115.641,85.034 109.157 C 84.822 101.276,84.330 100.760,78.201 101.978 " stroke="none" fill="#000000" fill-rule="evenodd"></path>
	<path id="cungus" d="M36.070 90.339 C 35.358 90.642,34.471 91.306,34.099 91.815 C 33.528 92.597,32.175 92.784,25.448 93.011 L 17.473 93.280 17.299 95.423 C 17.203 96.602,16.924 97.691,16.679 97.842 C 16.433 97.994,15.951 100.538,15.607 103.495 C 15.212 106.895,14.699 109.090,14.211 109.468 C 13.788 109.796,13.441 110.267,13.441 110.514 C 13.441 110.761,12.780 111.653,11.972 112.496 C 10.362 114.176,10.815 115.029,13.323 115.046 C 13.998 115.050,14.689 115.417,14.859 115.860 C 15.202 116.754,18.280 116.996,18.280 116.129 C 18.280 115.833,18.559 115.591,18.901 115.591 C 19.243 115.591,20.366 114.948,21.398 114.161 C 24.170 112.046,27.985 111.777,29.186 113.610 C 29.677 114.359,30.630 115.143,31.303 115.352 C 33.375 115.996,35.484 117.762,35.484 118.854 C 35.484 119.425,35.726 119.892,36.022 119.892 C 36.325 119.892,36.559 121.416,36.559 123.387 C 36.559 125.309,36.374 126.882,36.148 126.882 C 35.922 126.882,35.318 127.849,34.806 129.032 C 34.293 130.215,33.632 131.183,33.335 131.183 C 33.038 131.183,32.796 131.425,32.796 131.720 C 32.796 133.269,38.728 131.249,40.034 129.255 C 40.502 128.541,41.147 127.957,41.467 127.957 C 41.788 127.957,42.525 127.352,43.107 126.613 C 43.688 125.874,44.389 125.269,44.663 125.269 C 44.938 125.269,46.077 124.327,47.194 123.175 C 48.442 121.890,50.154 120.810,51.629 120.379 C 52.951 119.992,54.153 119.523,54.301 119.336 C 54.449 119.149,56.711 118.741,59.328 118.429 C 64.546 117.808,66.305 116.633,67.964 112.662 C 68.670 110.974,69.703 109.498,71.562 107.524 C 72.037 107.020,72.571 106.028,72.749 105.320 C 73.103 103.911,77.003 99.462,77.884 99.462 C 78.650 99.462,80.108 97.269,80.108 96.117 C 80.108 95.419,79.683 95.161,78.533 95.161 C 77.667 95.161,76.636 94.839,76.241 94.444 C 75.792 93.994,73.431 93.590,69.916 93.359 C 64.237 92.987,60.215 92.139,60.215 91.313 C 60.215 90.515,57.654 90.830,57.332 91.667 C 56.900 92.793,55.455 92.672,52.949 91.299 C 50.515 89.965,38.555 89.285,36.070 90.339 " stroke="none" fill="#787878" fill-rule="evenodd"></path>
	<path id="ergani" d="M125.628 79.825 C 125.193 80.261,123.663 80.867,122.230 81.173 C 120.796 81.479,119.096 81.848,118.452 81.994 C 117.807 82.140,116.959 82.581,116.566 82.973 C 116.174 83.365,113.354 84.102,110.298 84.611 C 105.085 85.480,104.613 85.666,102.618 87.641 C 101.308 88.938,99.764 89.881,98.591 90.101 C 97.544 90.298,96.569 90.769,96.424 91.148 C 96.278 91.527,94.934 92.238,93.436 92.728 C 91.939 93.217,90.366 93.965,89.942 94.390 C 89.225 95.107,86.782 95.458,84.062 95.233 C 83.211 95.163,82.753 95.584,82.315 96.843 C 81.466 99.279,81.537 99.462,83.333 99.462 C 84.220 99.462,84.946 99.710,84.946 100.013 C 84.946 100.316,85.526 100.785,86.234 101.054 C 87.507 101.538,87.519 101.609,87.234 107.198 C 86.875 114.220,88.324 118.185,91.277 118.262 C 91.654 118.272,92.178 118.824,92.442 119.489 C 92.866 120.561,93.648 121.566,97.093 125.469 C 97.582 126.023,98.308 127.715,98.708 129.228 C 99.107 130.741,99.682 132.062,99.986 132.164 C 100.289 132.265,100.538 132.670,100.538 133.065 C 100.538 133.459,100.777 133.862,101.070 133.961 C 101.363 134.059,101.760 135.652,101.953 137.500 C 102.146 139.348,102.511 140.860,102.765 140.860 C 103.018 140.860,103.226 141.465,103.226 142.204 C 103.226 142.944,102.984 143.548,102.688 143.548 C 102.392 143.548,102.151 144.341,102.151 145.310 C 102.151 147.285,101.129 148.983,97.487 153.061 C 96.844 153.781,96.012 155.564,95.638 157.024 C 95.264 158.483,94.762 159.677,94.522 159.677 C 94.282 159.677,94.086 160.012,94.086 160.421 C 94.086 160.830,93.602 161.291,93.011 161.446 C 91.008 161.970,92.381 170.309,94.899 172.913 C 95.218 173.243,95.810 174.513,96.213 175.735 C 96.616 176.957,97.140 177.957,97.377 177.957 C 98.382 177.957,99.023 182.653,98.667 187.406 C 97.937 197.141,98.607 197.923,107.302 197.484 C 113.616 197.164,119.892 198.151,119.892 199.463 C 119.892 199.678,121.042 200.293,122.446 200.829 C 123.850 201.365,125.319 202.124,125.710 202.515 C 127.114 203.919,128.380 203.365,128.694 201.210 C 129.191 197.804,128.828 192.315,128.090 192.069 C 127.721 191.946,127.419 191.535,127.419 191.154 C 127.419 190.774,126.949 188.991,126.374 187.191 C 125.369 184.046,125.359 183.481,126.094 172.471 C 126.515 166.174,126.864 160.836,126.870 160.610 C 126.877 160.383,127.782 159.778,128.881 159.265 C 132.465 157.595,132.796 156.972,132.796 151.882 C 132.796 149.368,132.983 147.312,133.211 147.312 C 133.440 147.312,134.104 146.405,134.689 145.296 C 135.920 142.959,136.983 141.977,138.306 141.953 C 138.824 141.943,139.247 141.746,139.247 141.514 C 139.247 141.282,139.955 140.674,140.821 140.163 C 141.789 139.591,142.639 138.460,143.031 137.224 C 143.765 134.906,144.860 133.871,146.576 133.871 C 148.340 133.871,148.605 133.075,148.632 127.696 C 148.654 123.269,148.749 122.836,149.731 122.695 C 151.067 122.503,151.463 89.825,150.134 89.382 C 149.765 89.259,149.462 88.732,149.462 88.213 C 149.462 86.735,144.944 82.258,143.452 82.258 C 142.750 82.258,141.683 81.914,141.082 81.493 C 140.306 80.949,138.540 80.747,134.997 80.797 C 130.805 80.856,129.923 80.720,129.492 79.950 C 128.862 78.823,126.700 78.753,125.628 79.825 " stroke="none" fill="#f00000" fill-rule="evenodd"></path>
	<path id="baglar" d="M190.323 173.770 C 188.992 174.065,187.782 174.480,187.634 174.692 C 187.279 175.202,181.167 176.882,179.669 176.882 C 179.023 176.882,178.495 177.124,178.495 177.419 C 178.495 177.715,177.466 177.960,176.210 177.963 C 173.435 177.971,168.091 179.330,167.836 180.093 C 167.735 180.397,167.200 180.645,166.647 180.645 C 165.713 180.645,164.528 183.265,164.519 185.349 C 164.517 185.719,163.911 186.022,163.172 186.022 C 162.433 186.022,161.828 185.796,161.828 185.520 C 161.828 185.244,161.356 184.869,160.780 184.686 C 160.204 184.503,159.583 183.882,159.400 183.306 C 159.217 182.730,158.658 182.258,158.157 182.258 C 157.657 182.258,156.595 181.653,155.798 180.914 C 154.242 179.472,138.172 178.737,138.172 180.108 C 138.172 180.403,136.992 180.645,135.550 180.645 C 131.788 180.645,127.419 182.647,127.419 184.370 C 127.419 184.687,127.621 184.946,127.866 184.946 C 128.278 184.946,129.224 187.955,129.935 191.532 C 130.097 192.345,130.444 193.011,130.706 193.011 C 131.323 193.011,131.331 201.458,130.715 201.839 C 129.362 202.675,129.612 211.290,130.989 211.290 C 131.391 211.290,131.720 211.093,131.720 210.852 C 131.720 210.611,132.567 210.010,133.602 209.517 C 134.637 209.023,135.484 208.376,135.484 208.079 C 135.484 207.492,136.721 205.839,138.481 204.075 C 139.094 203.460,139.734 202.579,139.903 202.118 C 140.401 200.760,144.173 199.891,146.873 200.514 C 149.999 201.235,150.178 201.219,151.377 200.118 C 155.226 196.585,157.079 195.824,162.903 195.387 C 169.718 194.875,183.093 195.097,184.811 195.750 C 188.152 197.020,189.490 201.119,186.694 201.516 C 186.028 201.610,185.484 201.894,185.484 202.145 C 185.484 202.397,184.758 202.762,183.871 202.957 C 180.072 203.791,182.085 206.964,186.425 206.982 C 188.006 206.989,188.172 207.142,188.172 208.602 C 188.172 209.489,188.414 210.215,188.710 210.215 C 189.005 210.215,189.247 210.541,189.247 210.939 C 189.247 213.226,190.937 215.054,193.050 215.054 C 195.061 215.054,195.161 214.973,195.161 213.354 C 195.161 211.810,192.614 208.602,191.387 208.602 C 190.761 208.602,189.803 205.954,190.126 205.114 C 190.375 204.464,191.508 204.301,195.775 204.301 C 202.253 204.301,205.997 202.443,203.033 200.699 C 202.631 200.462,202.085 199.334,201.820 198.192 C 201.414 196.441,201.001 195.982,199.191 195.273 C 196.760 194.320,196.257 193.778,196.245 192.106 C 196.240 191.410,195.800 190.794,195.161 190.591 C 193.923 190.198,193.560 186.566,194.758 186.551 C 196.652 186.528,196.895 185.702,195.881 182.734 C 195.337 181.142,194.711 179.758,194.489 179.659 C 193.880 179.389,194.005 175.806,194.624 175.806 C 195.406 175.806,195.282 174.775,194.393 173.886 C 193.535 173.028,193.653 173.031,190.323 173.770 " stroke="none" fill="#f07800" fill-rule="evenodd"></path>
	<path id="kayapinar" d="M151.075 131.968 C 151.075 133.679,149.122 135.484,147.270 135.484 C 146.043 135.484,145.765 135.768,145.473 137.326 C 145.283 138.340,144.945 139.247,144.722 139.343 C 144.499 139.438,143.783 140.275,143.133 141.202 C 142.367 142.293,141.323 143.006,140.175 143.221 C 138.935 143.454,138.092 144.080,137.376 145.299 C 136.812 146.258,136.003 147.395,135.577 147.825 C 134.978 148.430,134.876 149.537,135.122 152.736 C 135.476 157.325,135.190 157.883,131.185 160.412 C 129.008 161.787,128.650 162.951,128.558 168.952 C 128.522 171.329,128.264 173.118,127.957 173.118 C 127.657 173.118,127.419 174.573,127.419 176.407 L 127.419 179.695 128.898 179.341 C 131.951 178.611,139.198 178.024,145.565 177.991 C 149.574 177.970,152.151 177.747,152.151 177.419 C 152.151 177.124,152.755 176.882,153.495 176.882 C 154.234 176.882,154.839 177.086,154.839 177.335 C 154.839 177.584,155.685 178.244,156.720 178.801 C 157.755 179.358,158.602 180.001,158.602 180.230 C 158.602 180.458,159.069 180.645,159.639 180.645 C 160.209 180.645,161.078 181.047,161.570 181.539 C 162.554 182.523,163.416 181.826,163.433 180.032 C 163.438 179.455,164.275 178.905,165.860 178.437 C 167.191 178.044,168.280 177.572,168.280 177.388 C 168.280 176.927,173.176 175.930,177.554 175.500 C 179.550 175.304,181.183 174.950,181.183 174.714 C 181.183 174.478,182.997 173.857,185.215 173.335 C 187.433 172.812,189.247 172.186,189.247 171.945 C 189.247 171.703,189.610 171.505,190.054 171.505 C 191.533 171.505,190.886 170.028,188.211 167.295 C 186.753 165.807,185.293 164.089,184.966 163.477 C 184.639 162.866,184.095 162.366,183.758 162.366 C 183.136 162.366,176.889 156.096,176.873 155.456 C 176.869 155.264,175.905 154.019,174.731 152.688 C 173.558 151.358,172.594 149.966,172.589 149.597 C 172.584 149.227,172.343 148.925,172.053 148.925 C 171.763 148.925,171.374 148.320,171.189 147.581 C 171.003 146.841,170.624 146.237,170.347 146.237 C 170.069 146.237,168.462 144.917,166.776 143.304 C 160.473 137.277,157.909 134.946,157.583 134.946 C 157.398 134.946,156.645 134.393,155.908 133.717 C 152.439 130.531,151.075 130.038,151.075 131.968 " stroke="none" fill="#8df000" fill-rule="evenodd"></path>
	<path id="yenisehir" d="M150.538 125.263 C 150.538 126.501,152.085 128.495,153.046 128.495 C 153.407 128.495,154.019 128.922,154.405 129.445 C 154.791 129.967,155.719 130.784,156.466 131.260 C 158.492 132.551,160.432 134.255,164.792 138.575 C 166.956 140.719,168.987 142.473,169.305 142.473 C 169.623 142.473,170.186 142.957,170.555 143.548 C 170.924 144.140,171.444 144.624,171.710 144.624 C 172.419 144.624,173.619 146.363,173.639 147.420 C 173.648 147.922,173.970 148.527,174.355 148.764 C 174.739 149.000,175.643 150.037,176.364 151.068 C 178.552 154.200,184.577 160.571,186.318 161.595 C 186.855 161.911,187.552 162.613,187.867 163.156 C 188.183 163.699,190.197 165.903,192.344 168.053 C 194.892 170.605,196.362 172.537,196.578 173.616 C 197.118 176.317,198.785 175.844,198.808 172.984 C 198.818 171.727,199.000 169.756,199.212 168.604 C 199.434 167.400,199.321 165.268,198.945 163.589 C 198.304 160.726,198.856 157.527,199.990 157.527 C 200.466 157.527,201.252 152.651,201.204 150.000 C 201.186 148.965,201.081 146.062,200.972 143.548 C 200.863 141.035,201.096 136.955,201.491 134.482 C 202.238 129.798,202.085 128.719,200.903 130.335 C 200.344 131.100,198.984 131.381,194.105 131.742 C 190.751 131.990,187.862 132.409,187.686 132.673 C 186.649 134.226,174.686 134.912,167.659 133.822 C 163.600 133.192,163.123 132.912,158.926 128.697 C 157.417 127.182,155.517 125.786,154.704 125.595 C 153.891 125.404,153.226 125.011,153.226 124.721 C 153.226 124.431,152.621 124.194,151.882 124.194 C 150.899 124.194,150.538 124.481,150.538 125.263 " stroke="none" fill="#00f0dc" fill-rule="evenodd"></path>
	<path id="egil" d="M175.806 94.086 C 175.806 94.382,175.352 94.624,174.797 94.624 C 174.242 94.624,173.486 94.987,173.118 95.430 C 172.750 95.874,172.015 96.237,171.484 96.237 C 170.954 96.237,170.419 96.539,170.296 96.909 C 170.136 97.388,168.387 97.593,164.202 97.625 C 157.227 97.678,153.226 98.567,153.226 100.064 C 153.226 100.620,152.984 101.075,152.688 101.075 C 152.367 101.075,152.151 103.136,152.151 106.183 C 152.151 109.229,152.367 111.290,152.688 111.290 C 152.984 111.290,153.226 112.258,153.226 113.441 C 153.226 114.624,152.984 115.591,152.688 115.591 C 151.843 115.591,152.060 119.341,152.957 120.238 C 153.401 120.682,153.763 121.458,153.763 121.964 C 153.763 122.590,154.537 123.112,156.183 123.598 C 157.513 123.991,158.602 124.467,158.603 124.656 C 158.606 126.475,164.489 130.911,167.730 131.539 C 174.111 132.776,189.785 131.684,189.785 130.003 C 189.785 129.765,191.449 129.570,193.483 129.570 C 200.152 129.570,202.984 127.588,204.131 122.117 C 204.537 120.179,205.078 118.462,205.333 118.302 C 207.105 117.189,208.225 107.544,206.586 107.503 C 193.658 107.181,191.318 105.731,192.289 98.647 C 192.653 95.994,192.909 96.173,188.441 95.960 C 185.085 95.800,178.495 94.501,178.495 94.000 C 178.495 93.752,177.890 93.548,177.151 93.548 C 176.411 93.548,175.806 93.790,175.806 94.086 " stroke="none" fill="#000bf0" fill-rule="evenodd"></path>
</svg>